<svg width="32" height="32" viewBox="0 0 32 32" fill="none" xmlns="http://www.w3.org/2000/svg">
<path fill-rule="evenodd" clip-rule="evenodd" d="M3.54531 3.54535C2.66663 4.42403 2.66663 5.83824 2.66663 8.66666V23.3333C2.66663 26.1618 2.66663 27.576 3.54531 28.4547C4.42399 29.3333 5.8382 29.3333 8.66662 29.3333H23.3333C26.1617 29.3333 27.5759 29.3333 28.4546 28.4547C29.3333 27.576 29.3333 26.1618 29.3333 23.3333V8.66667C29.3333 5.83824 29.3333 4.42403 28.4546 3.54535C27.5759 2.66667 26.1617 2.66667 23.3333 2.66667H8.66663C5.8382 2.66667 4.42399 2.66667 3.54531 3.54535ZM23.4987 12.5547C23.805 12.0952 23.6809 11.4743 23.2213 11.168C22.7618 10.8616 22.1409 10.9858 21.8346 11.4453L17.4571 18.0115L16.3317 15.7607C15.6449 14.3872 13.7306 14.268 12.8787 15.5457L8.50124 22.112C8.19489 22.5715 8.31907 23.1924 8.77859 23.4987C9.23812 23.8051 9.85899 23.6809 10.1653 23.2214L14.5428 16.6551L15.6682 18.906C16.355 20.2795 18.2694 20.3987 19.1212 19.1209L23.4987 12.5547Z" fill="url(#paint0_linear_31_2850)"/>
<defs>
<linearGradient id="paint0_linear_31_2850" x1="29.2571" y1="-7.31428" x2="0.914284" y2="32.9143" gradientUnits="userSpaceOnUse">
<stop offset="0.082798" stop-color="#A43936"/>
<stop offset="0.552083" stop-color="#444584"/>
<stop offset="1" stop-color="#223F80"/>
</linearGradient>
</defs>
</svg>
