<svg width="37" height="37" viewBox="0 0 37 37" fill="none" xmlns="http://www.w3.org/2000/svg">
<circle cx="18.5" cy="12.3334" r="5.16667" stroke="url(#paint0_linear_17_4026)" stroke-width="2" stroke-linecap="round"/>
<path d="M23.069 12.0625C23.5497 11.2299 24.3415 10.6224 25.2702 10.3735C26.1988 10.1247 27.1883 10.255 28.0209 10.7357C28.8535 11.2164 29.461 12.0081 29.7099 12.9368C29.9587 13.8654 29.8284 14.8549 29.3477 15.6875C28.867 16.5201 28.0752 17.1276 27.1466 17.3765C26.2179 17.6253 25.2285 17.495 24.3959 17.0143C23.5633 16.5336 22.9557 15.7419 22.7069 14.8132C22.4581 13.8846 22.5883 12.8951 23.069 12.0625L23.069 12.0625Z" stroke="url(#paint1_linear_17_4026)" stroke-width="2"/>
<path d="M7.65228 12.0625C8.13299 11.2299 8.92476 10.6224 9.85341 10.3735C10.7821 10.1247 11.7715 10.255 12.6041 10.7357C13.4367 11.2164 14.0443 12.0081 14.2931 12.9368C14.5419 13.8654 14.4117 14.8549 13.931 15.6875C13.4503 16.5201 12.6585 17.1276 11.7298 17.3765C10.8012 17.6253 9.81173 17.495 8.97913 17.0143C8.14652 16.5336 7.53898 15.7419 7.29014 14.8132C7.04131 13.8846 7.17158 12.8951 7.65228 12.0625L7.65228 12.0625Z" stroke="url(#paint2_linear_17_4026)" stroke-width="2"/>
<path d="M26.0258 27.75L25.0455 27.9474L25.2072 28.75H26.0258V27.75ZM32.1314 26.6469L33.0927 26.3714V26.3714L32.1314 26.6469ZM22.7871 22.6787L22.1823 21.8824L21.0257 22.7609L22.259 23.5279L22.7871 22.6787ZM31.2422 26.75H26.0258V28.75H31.2422V26.75ZM31.17 26.9223C31.1662 26.909 31.1629 26.882 31.1701 26.8491C31.1769 26.8181 31.1902 26.7945 31.2029 26.7791C31.2279 26.7488 31.2489 26.75 31.2422 26.75V28.75C32.4101 28.75 33.4676 27.6801 33.0927 26.3714L31.17 26.9223ZM26.2084 22.5833C27.8578 22.5833 28.9493 23.2555 29.7085 24.1128C30.4943 25.0003 30.9364 26.1068 31.17 26.9223L33.0927 26.3714C32.8181 25.413 32.2692 23.9878 31.2058 22.7869C30.1158 21.5559 28.5 20.5833 26.2084 20.5833V22.5833ZM23.392 23.4751C24.0774 22.9544 24.9812 22.5833 26.2084 22.5833V20.5833C24.5373 20.5833 23.21 21.1017 22.1823 21.8824L23.392 23.4751ZM22.259 23.5279C24.0477 24.6404 24.7651 26.555 25.0455 27.9474L27.0062 27.5525C26.682 25.943 25.7933 23.3707 23.3152 21.8296L22.259 23.5279Z" fill="url(#paint3_linear_17_4026)"/>
<path d="M14.213 22.6787L14.7411 23.5279L15.9744 22.7608L14.8178 21.8824L14.213 22.6787ZM4.86871 26.6468L3.90739 26.3714H3.90739L4.86871 26.6468ZM10.9742 27.75V28.75H11.7929L11.9545 27.9474L10.9742 27.75ZM10.7917 22.5833C12.0189 22.5833 12.9227 22.9544 13.6081 23.475L14.8178 21.8824C13.79 21.1017 12.4628 20.5833 10.7917 20.5833V22.5833ZM5.83003 26.9223C6.06366 26.1068 6.50575 25.0003 7.2916 24.1128C8.05076 23.2555 9.14233 22.5833 10.7917 22.5833V20.5833C8.50015 20.5833 6.88432 21.5559 5.79427 22.7869C4.73091 23.9878 4.18199 25.413 3.90739 26.3714L5.83003 26.9223ZM5.75784 26.75C5.75121 26.75 5.77213 26.7488 5.79712 26.7791C5.80986 26.7945 5.8232 26.8181 5.82999 26.8491C5.83719 26.882 5.83385 26.909 5.83003 26.9223L3.90739 26.3714C3.53246 27.6801 4.58994 28.75 5.75784 28.75V26.75ZM10.9742 26.75H5.75784V28.75H10.9742V26.75ZM11.9545 27.9474C12.2349 26.555 12.9524 24.6403 14.7411 23.5279L13.6848 21.8295C11.2068 23.3707 10.318 25.9429 9.99387 27.5525L11.9545 27.9474Z" fill="url(#paint4_linear_17_4026)"/>
<path d="M18.5 21.5833C24.4754 21.5833 25.8187 26.2155 26.1207 28.2981C26.2 28.8447 25.7606 29.2916 25.2083 29.2916H11.7916C11.2393 29.2916 10.7999 28.8447 10.8792 28.2981C11.1812 26.2155 12.5245 21.5833 18.5 21.5833Z" stroke="url(#paint5_linear_17_4026)" stroke-width="2" stroke-linecap="round"/>
<defs>
<linearGradient id="paint0_linear_17_4026" x1="12.5" y1="18.5" x2="21.5" y2="2" gradientUnits="userSpaceOnUse">
<stop stop-color="#223F80"/>
<stop offset="0.499547" stop-color="#444584"/>
<stop offset="1" stop-color="#A43936"/>
</linearGradient>
<linearGradient id="paint1_linear_17_4026" x1="22.5" y1="21" x2="31.5" y2="6" gradientUnits="userSpaceOnUse">
<stop stop-color="#223F80"/>
<stop offset="0.453125" stop-color="#444584"/>
<stop offset="1" stop-color="#A43936"/>
</linearGradient>
<linearGradient id="paint2_linear_17_4026" x1="6.5" y1="18" x2="13.5" y2="5" gradientUnits="userSpaceOnUse">
<stop stop-color="#223F80"/>
<stop offset="0.411458" stop-color="#444584"/>
<stop offset="1" stop-color="#A43936"/>
</linearGradient>
<linearGradient id="paint3_linear_17_4026" x1="24" y1="30.5" x2="32" y2="19" gradientUnits="userSpaceOnUse">
<stop stop-color="#223F80"/>
<stop offset="0.505208" stop-color="#444584"/>
<stop offset="1" stop-color="#A43936"/>
</linearGradient>
<linearGradient id="paint4_linear_17_4026" x1="5" y1="29.5" x2="15" y2="17" gradientUnits="userSpaceOnUse">
<stop stop-color="#223F80"/>
<stop offset="0.463542" stop-color="#444584"/>
<stop offset="1" stop-color="#A43936"/>
</linearGradient>
<linearGradient id="paint5_linear_17_4026" x1="12" y1="33" x2="23.5" y2="15" gradientUnits="userSpaceOnUse">
<stop stop-color="#223F80"/>
<stop offset="0.479167" stop-color="#444584"/>
<stop offset="1" stop-color="#A43936"/>
</linearGradient>
</defs>
</svg>
