<svg width="44" height="44" viewBox="0 0 44 44" fill="none" xmlns="http://www.w3.org/2000/svg">
<path d="M28.3333 14.6667C28.3333 18.1645 25.4978 21 22 21C18.5022 21 15.6666 18.1645 15.6666 14.6667C15.6666 11.1689 18.5022 8.33337 22 8.33337C25.4978 8.33337 28.3333 11.1689 28.3333 14.6667Z" stroke="white" stroke-width="2" stroke-linecap="round"/>
<path d="M27.2695 14.25C27.8662 13.2164 28.8491 12.4622 30.0019 12.1533C31.1547 11.8444 32.383 12.0061 33.4166 12.6029C34.4502 13.1996 35.2044 14.1825 35.5133 15.3353C35.8222 16.4881 35.6605 17.7164 35.0637 18.75C34.467 19.7836 33.4841 20.5378 32.3313 20.8467C31.1785 21.1556 29.9502 20.9939 28.9166 20.3971C27.883 19.8004 27.1289 18.8175 26.82 17.6647C26.5111 16.5119 26.6728 15.2836 27.2695 14.25L27.2695 14.25Z" stroke="white" stroke-width="2"/>
<path d="M8.93626 14.25C9.533 13.2164 10.5159 12.4622 11.6687 12.1533C12.8215 11.8444 14.0498 12.0061 15.0834 12.6029C16.117 13.1996 16.8711 14.1825 17.18 15.3353C17.4889 16.4881 17.3272 17.7164 16.7305 18.75C16.1338 19.7836 15.1509 20.5378 13.9981 20.8467C12.8453 21.1556 11.617 20.9939 10.5834 20.3971C9.5498 19.8004 8.7956 18.8175 8.48671 17.6647C8.17781 16.5119 8.33952 15.2836 8.93626 14.25L8.93626 14.25Z" stroke="white" stroke-width="2"/>
<path d="M30.9496 33L29.9693 33.1974L30.1309 34H30.9496V33ZM38.2671 31.8937L39.2332 31.6356V31.6356L38.2671 31.8937ZM27.0981 26.9693L26.4933 26.1729L25.3367 27.0514L26.57 27.8184L27.0981 26.9693ZM37.3672 32H30.9496V34H37.3672V32ZM37.301 32.1517C37.2979 32.1403 37.2953 32.1166 37.302 32.0877C37.3082 32.0605 37.32 32.0398 37.3313 32.0262C37.3537 31.9993 37.3728 32 37.3672 32V34C38.5422 34 39.579 32.9302 39.2332 31.6356L37.301 32.1517ZM31.1667 26.6666C33.254 26.6666 34.6258 27.549 35.5648 28.658C36.5311 29.7993 37.0457 31.1961 37.301 32.1517L39.2332 31.6356C38.9413 30.5424 38.3274 28.8258 37.0912 27.3657C35.8276 25.8734 33.9228 24.6666 31.1667 24.6666V26.6666ZM27.703 27.7656C28.5505 27.1219 29.6653 26.6666 31.1667 26.6666V24.6666C29.2215 24.6666 27.6831 25.2692 26.4933 26.1729L27.703 27.7656ZM26.57 27.8184C28.7623 29.1819 29.6317 31.521 29.9693 33.1974L31.9299 32.8025C31.5486 30.909 30.5079 27.9123 27.6263 26.1201L26.57 27.8184Z" fill="white"/>
<path d="M16.9018 26.9692L17.43 27.8184L18.6633 27.0514L17.5067 26.1729L16.9018 26.9692ZM5.73286 31.8937L6.69899 32.1517L6.69899 32.1517L5.73286 31.8937ZM13.0503 33V34H13.869L14.0306 33.1974L13.0503 33ZM12.8334 26.6666C14.3347 26.6666 15.4495 27.1219 16.297 27.7656L17.5067 26.1729C16.3169 25.2692 14.7785 24.6666 12.8334 24.6666V26.6666ZM6.69899 32.1517C6.95423 31.1961 7.46891 29.7993 8.4352 28.658C9.37423 27.549 10.7461 26.6666 12.8334 26.6666V24.6666C10.0772 24.6666 8.17239 25.8734 6.90885 27.3657C5.67257 28.8258 5.05873 30.5424 4.76673 31.6356L6.69899 32.1517ZM6.63279 32C6.62713 32 6.64631 31.9993 6.66865 32.0262C6.67993 32.0398 6.69174 32.0605 6.69799 32.0877C6.70464 32.1166 6.70203 32.1403 6.69899 32.1517L4.76673 31.6356C4.42093 32.9302 5.45777 34 6.63279 34V32ZM13.0503 32H6.63279V34H13.0503V32ZM14.0306 33.1974C14.3683 31.521 15.2376 29.1819 17.43 27.8184L16.3737 26.1201C13.492 27.9123 12.4514 30.909 12.07 32.8025L14.0306 33.1974Z" fill="white"/>
<path d="M22 25.6666C29.2931 25.6666 30.7837 31.469 31.0884 33.841C31.1588 34.3887 30.719 34.8333 30.1667 34.8333H13.8334C13.2811 34.8333 12.8413 34.3887 12.9117 33.841C13.2163 31.469 14.707 25.6666 22 25.6666Z" stroke="white" stroke-width="2" stroke-linecap="round"/>
</svg>
