<svg width="42" height="42" viewBox="0 0 42 42" fill="none" xmlns="http://www.w3.org/2000/svg">
<path fill-rule="evenodd" clip-rule="evenodd" d="M5.26095 12.9999C5.422 13.0015 5.58496 13.0421 5.73564 13.1258L21 21.606L36.2644 13.1258C36.415 13.0421 36.578 13.0015 36.739 12.9999C36.7028 11.2946 36.5463 10.3036 35.8713 9.62868C34.9926 8.75 33.5784 8.75 30.75 8.75H11.25C8.42157 8.75 7.00736 8.75 6.12868 9.62868C5.45371 10.3036 5.29723 11.2946 5.26095 12.9999ZM36.75 15.144L21.9713 23.3544C21.3672 23.6899 20.6328 23.6899 20.0287 23.3544L5.25 15.144V27.25C5.25 30.0784 5.25 31.4926 6.12868 32.3713C7.00736 33.25 8.42157 33.25 11.25 33.25H30.75C33.5784 33.25 34.9926 33.25 35.8713 32.3713C36.75 31.4926 36.75 30.0784 36.75 27.25V15.144Z" fill="url(#paint0_linear_31_2872)"/>
<defs>
<linearGradient id="paint0_linear_31_2872" x1="23" y1="-1.5" x2="-0.999999" y2="43.5" gradientUnits="userSpaceOnUse">
<stop stop-color="#A43936"/>
<stop offset="0.489583" stop-color="#444584"/>
<stop offset="0.968025" stop-color="#223F80"/>
</linearGradient>
</defs>
</svg>
