<svg width="25" height="25" viewBox="0 0 25 25" fill="none" xmlns="http://www.w3.org/2000/svg">
<path d="M25 0H24.1379V0.862069H25V0Z" fill="white"/>
<path d="M24.1379 0H23.2759V0.862069H24.1379V0Z" fill="white"/>
<path d="M23.2759 0H22.4138V0.862069H23.2759V0Z" fill="white"/>
<path d="M22.4138 0H21.5517V0.862069H22.4138V0Z" fill="white"/>
<path d="M21.5517 0H20.6897V0.862069H21.5517V0Z" fill="white"/>
<path d="M20.6897 0H19.8276V0.862069H20.6897V0Z" fill="white"/>
<path d="M19.8276 0H18.9655V0.862069H19.8276V0Z" fill="white"/>
<path d="M16.3793 0H15.5172V0.862069H16.3793V0Z" fill="white"/>
<path d="M15.5172 0H14.6552V0.862069H15.5172V0Z" fill="white"/>
<path d="M14.6552 0H13.7931V0.862069H14.6552V0Z" fill="white"/>
<path d="M13.7931 0H12.931V0.862069H13.7931V0Z" fill="white"/>
<path d="M12.931 0H12.069V0.862069H12.931V0Z" fill="white"/>
<path d="M12.069 0H11.2069V0.862069H12.069V0Z" fill="white"/>
<path d="M11.2069 0H10.3448V0.862069H11.2069V0Z" fill="white"/>
<path d="M6.03448 0H5.17241V0.862069H6.03448V0Z" fill="white"/>
<path d="M5.17241 0H4.31034V0.862069H5.17241V0Z" fill="white"/>
<path d="M4.31034 0H3.44827V0.862069H4.31034V0Z" fill="white"/>
<path d="M3.44827 0H2.58621V0.862069H3.44827V0Z" fill="white"/>
<path d="M2.58621 0H1.72414V0.862069H2.58621V0Z" fill="white"/>
<path d="M1.72414 0H0.862068V0.862069H1.72414V0Z" fill="white"/>
<path d="M0.862068 0H0V0.862069H0.862068V0Z" fill="white"/>
<path d="M25 0.862069H24.1379V1.72414H25V0.862069Z" fill="white"/>
<path d="M19.8276 0.862069H18.9655V1.72414H19.8276V0.862069Z" fill="white"/>
<path d="M15.5172 0.862069H14.6552V1.72414H15.5172V0.862069Z" fill="white"/>
<path d="M14.6552 0.862069H13.7931V1.72414H14.6552V0.862069Z" fill="white"/>
<path d="M13.7931 0.862069H12.931V1.72414H13.7931V0.862069Z" fill="white"/>
<path d="M12.931 0.862069H12.069V1.72414H12.931V0.862069Z" fill="white"/>
<path d="M11.2069 0.862069H10.3448V1.72414H11.2069V0.862069Z" fill="white"/>
<path d="M10.3448 0.862069H9.48276V1.72414H10.3448V0.862069Z" fill="white"/>
<path d="M9.48276 0.862069H8.62069V1.72414H9.48276V0.862069Z" fill="white"/>
<path d="M6.03448 0.862069H5.17241V1.72414H6.03448V0.862069Z" fill="white"/>
<path d="M0.862068 0.862069H0V1.72414H0.862068V0.862069Z" fill="white"/>
<path d="M25 1.72414H24.1379V2.58621H25V1.72414Z" fill="white"/>
<path d="M23.2759 1.72414H22.4138V2.58621H23.2759V1.72414Z" fill="white"/>
<path d="M22.4138 1.72414H21.5517V2.58621H22.4138V1.72414Z" fill="white"/>
<path d="M21.5517 1.72414H20.6897V2.58621H21.5517V1.72414Z" fill="white"/>
<path d="M19.8276 1.72414H18.9655V2.58621H19.8276V1.72414Z" fill="white"/>
<path d="M16.3793 1.72414H15.5172V2.58621H16.3793V1.72414Z" fill="white"/>
<path d="M15.5172 1.72414H14.6552V2.58621H15.5172V1.72414Z" fill="white"/>
<path d="M14.6552 1.72414H13.7931V2.58621H14.6552V1.72414Z" fill="white"/>
<path d="M13.7931 1.72414H12.931V2.58621H13.7931V1.72414Z" fill="white"/>
<path d="M12.931 1.72414H12.069V2.58621H12.931V1.72414Z" fill="white"/>
<path d="M11.2069 1.72414H10.3448V2.58621H11.2069V1.72414Z" fill="white"/>
<path d="M8.62069 1.72414H7.75862V2.58621H8.62069V1.72414Z" fill="white"/>
<path d="M6.03448 1.72414H5.17241V2.58621H6.03448V1.72414Z" fill="white"/>
<path d="M4.31034 1.72414H3.44827V2.58621H4.31034V1.72414Z" fill="white"/>
<path d="M3.44827 1.72414H2.58621V2.58621H3.44827V1.72414Z" fill="white"/>
<path d="M2.58621 1.72414H1.72414V2.58621H2.58621V1.72414Z" fill="white"/>
<path d="M0.862068 1.72414H0V2.58621H0.862068V1.72414Z" fill="white"/>
<path d="M25 2.58621H24.1379V3.44828H25V2.58621Z" fill="white"/>
<path d="M23.2759 2.58621H22.4138V3.44828H23.2759V2.58621Z" fill="white"/>
<path d="M22.4138 2.58621H21.5517V3.44828H22.4138V2.58621Z" fill="white"/>
<path d="M21.5517 2.58621H20.6897V3.44828H21.5517V2.58621Z" fill="white"/>
<path d="M19.8276 2.58621H18.9655V3.44828H19.8276V2.58621Z" fill="white"/>
<path d="M17.2414 2.58621H16.3793V3.44828H17.2414V2.58621Z" fill="white"/>
<path d="M15.5172 2.58621H14.6552V3.44828H15.5172V2.58621Z" fill="white"/>
<path d="M14.6552 2.58621H13.7931V3.44828H14.6552V2.58621Z" fill="white"/>
<path d="M13.7931 2.58621H12.931V3.44828H13.7931V2.58621Z" fill="white"/>
<path d="M12.069 2.58621H11.2069V3.44828H12.069V2.58621Z" fill="white"/>
<path d="M11.2069 2.58621H10.3448V3.44828H11.2069V2.58621Z" fill="white"/>
<path d="M10.3448 2.58621H9.48276V3.44828H10.3448V2.58621Z" fill="white"/>
<path d="M7.75862 2.58621H6.89655V3.44828H7.75862V2.58621Z" fill="white"/>
<path d="M6.03448 2.58621H5.17241V3.44828H6.03448V2.58621Z" fill="white"/>
<path d="M4.31034 2.58621H3.44827V3.44828H4.31034V2.58621Z" fill="white"/>
<path d="M3.44827 2.58621H2.58621V3.44828H3.44827V2.58621Z" fill="white"/>
<path d="M2.58621 2.58621H1.72414V3.44828H2.58621V2.58621Z" fill="white"/>
<path d="M0.862068 2.58621H0V3.44828H0.862068V2.58621Z" fill="white"/>
<path d="M25 3.44828H24.1379V4.31034H25V3.44828Z" fill="white"/>
<path d="M23.2759 3.44828H22.4138V4.31034H23.2759V3.44828Z" fill="white"/>
<path d="M22.4138 3.44828H21.5517V4.31034H22.4138V3.44828Z" fill="white"/>
<path d="M21.5517 3.44828H20.6897V4.31034H21.5517V3.44828Z" fill="white"/>
<path d="M19.8276 3.44828H18.9655V4.31034H19.8276V3.44828Z" fill="white"/>
<path d="M18.1034 3.44828H17.2414V4.31034H18.1034V3.44828Z" fill="white"/>
<path d="M16.3793 3.44828H15.5172V4.31034H16.3793V3.44828Z" fill="white"/>
<path d="M15.5172 3.44828H14.6552V4.31034H15.5172V3.44828Z" fill="white"/>
<path d="M13.7931 3.44828H12.931V4.31034H13.7931V3.44828Z" fill="white"/>
<path d="M9.48276 3.44828H8.62069V4.31034H9.48276V3.44828Z" fill="white"/>
<path d="M8.62069 3.44828H7.75862V4.31034H8.62069V3.44828Z" fill="white"/>
<path d="M6.03448 3.44828H5.17241V4.31034H6.03448V3.44828Z" fill="white"/>
<path d="M4.31034 3.44828H3.44827V4.31034H4.31034V3.44828Z" fill="white"/>
<path d="M3.44827 3.44828H2.58621V4.31034H3.44827V3.44828Z" fill="white"/>
<path d="M2.58621 3.44828H1.72414V4.31034H2.58621V3.44828Z" fill="white"/>
<path d="M0.862068 3.44828H0V4.31034H0.862068V3.44828Z" fill="white"/>
<path d="M25 4.31034H24.1379V5.17241H25V4.31034Z" fill="white"/>
<path d="M19.8276 4.31034H18.9655V5.17241H19.8276V4.31034Z" fill="white"/>
<path d="M12.931 4.31034H12.069V5.17241H12.931V4.31034Z" fill="white"/>
<path d="M10.3448 4.31034H9.48276V5.17241H10.3448V4.31034Z" fill="white"/>
<path d="M9.48276 4.31034H8.62069V5.17241H9.48276V4.31034Z" fill="white"/>
<path d="M8.62069 4.31034H7.75862V5.17241H8.62069V4.31034Z" fill="white"/>
<path d="M7.75862 4.31034H6.89655V5.17241H7.75862V4.31034Z" fill="white"/>
<path d="M6.03448 4.31034H5.17241V5.17241H6.03448V4.31034Z" fill="white"/>
<path d="M0.862068 4.31034H0V5.17241H0.862068V4.31034Z" fill="white"/>
<path d="M25 5.17241H24.1379V6.03448H25V5.17241Z" fill="white"/>
<path d="M24.1379 5.17241H23.2759V6.03448H24.1379V5.17241Z" fill="white"/>
<path d="M23.2759 5.17241H22.4138V6.03448H23.2759V5.17241Z" fill="white"/>
<path d="M22.4138 5.17241H21.5517V6.03448H22.4138V5.17241Z" fill="white"/>
<path d="M21.5517 5.17241H20.6897V6.03448H21.5517V5.17241Z" fill="white"/>
<path d="M20.6897 5.17241H19.8276V6.03448H20.6897V5.17241Z" fill="white"/>
<path d="M19.8276 5.17241H18.9655V6.03448H19.8276V5.17241Z" fill="white"/>
<path d="M18.1034 5.17241H17.2414V6.03448H18.1034V5.17241Z" fill="white"/>
<path d="M16.3793 5.17241H15.5172V6.03448H16.3793V5.17241Z" fill="white"/>
<path d="M14.6552 5.17241H13.7931V6.03448H14.6552V5.17241Z" fill="white"/>
<path d="M12.931 5.17241H12.069V6.03448H12.931V5.17241Z" fill="white"/>
<path d="M11.2069 5.17241H10.3448V6.03448H11.2069V5.17241Z" fill="white"/>
<path d="M9.48276 5.17241H8.62069V6.03448H9.48276V5.17241Z" fill="white"/>
<path d="M7.75862 5.17241H6.89655V6.03448H7.75862V5.17241Z" fill="white"/>
<path d="M6.03448 5.17241H5.17241V6.03448H6.03448V5.17241Z" fill="white"/>
<path d="M5.17241 5.17241H4.31034V6.03448H5.17241V5.17241Z" fill="white"/>
<path d="M4.31034 5.17241H3.44827V6.03448H4.31034V5.17241Z" fill="white"/>
<path d="M3.44827 5.17241H2.58621V6.03448H3.44827V5.17241Z" fill="white"/>
<path d="M2.58621 5.17241H1.72414V6.03448H2.58621V5.17241Z" fill="white"/>
<path d="M1.72414 5.17241H0.862068V6.03448H1.72414V5.17241Z" fill="white"/>
<path d="M0.862068 5.17241H0V6.03448H0.862068V5.17241Z" fill="white"/>
<path d="M18.1034 6.03448H17.2414V6.89655H18.1034V6.03448Z" fill="white"/>
<path d="M14.6552 6.03448H13.7931V6.89655H14.6552V6.03448Z" fill="white"/>
<path d="M12.931 6.03448H12.069V6.89655H12.931V6.03448Z" fill="white"/>
<path d="M12.069 6.03448H11.2069V6.89655H12.069V6.03448Z" fill="white"/>
<path d="M11.2069 6.03448H10.3448V6.89655H11.2069V6.03448Z" fill="white"/>
<path d="M7.75862 6.03448H6.89655V6.89655H7.75862V6.03448Z" fill="white"/>
<path d="M23.2759 6.89655H22.4138V7.75862H23.2759V6.89655Z" fill="white"/>
<path d="M22.4138 6.89655H21.5517V7.75862H22.4138V6.89655Z" fill="white"/>
<path d="M19.8276 6.89655H18.9655V7.75862H19.8276V6.89655Z" fill="white"/>
<path d="M18.9655 6.89655H18.1034V7.75862H18.9655V6.89655Z" fill="white"/>
<path d="M18.1034 6.89655H17.2414V7.75862H18.1034V6.89655Z" fill="white"/>
<path d="M14.6552 6.89655H13.7931V7.75862H14.6552V6.89655Z" fill="white"/>
<path d="M13.7931 6.89655H12.931V7.75862H13.7931V6.89655Z" fill="white"/>
<path d="M12.931 6.89655H12.069V7.75862H12.931V6.89655Z" fill="white"/>
<path d="M11.2069 6.89655H10.3448V7.75862H11.2069V6.89655Z" fill="white"/>
<path d="M9.48276 6.89655H8.62069V7.75862H9.48276V6.89655Z" fill="white"/>
<path d="M6.89655 6.89655H6.03448V7.75862H6.89655V6.89655Z" fill="white"/>
<path d="M6.03448 6.89655H5.17241V7.75862H6.03448V6.89655Z" fill="white"/>
<path d="M4.31034 6.89655H3.44827V7.75862H4.31034V6.89655Z" fill="white"/>
<path d="M24.1379 7.75862H23.2759V8.62069H24.1379V7.75862Z" fill="white"/>
<path d="M21.5517 7.75862H20.6897V8.62069H21.5517V7.75862Z" fill="white"/>
<path d="M20.6897 7.75862H19.8276V8.62069H20.6897V7.75862Z" fill="white"/>
<path d="M16.3793 7.75862H15.5172V8.62069H16.3793V7.75862Z" fill="white"/>
<path d="M12.069 7.75862H11.2069V8.62069H12.069V7.75862Z" fill="white"/>
<path d="M11.2069 7.75862H10.3448V8.62069H11.2069V7.75862Z" fill="white"/>
<path d="M10.3448 7.75862H9.48276V8.62069H10.3448V7.75862Z" fill="white"/>
<path d="M9.48276 7.75862H8.62069V8.62069H9.48276V7.75862Z" fill="white"/>
<path d="M7.75862 7.75862H6.89655V8.62069H7.75862V7.75862Z" fill="white"/>
<path d="M6.89655 7.75862H6.03448V8.62069H6.89655V7.75862Z" fill="white"/>
<path d="M6.03448 7.75862H5.17241V8.62069H6.03448V7.75862Z" fill="white"/>
<path d="M5.17241 7.75862H4.31034V8.62069H5.17241V7.75862Z" fill="white"/>
<path d="M4.31034 7.75862H3.44827V8.62069H4.31034V7.75862Z" fill="white"/>
<path d="M3.44827 7.75862H2.58621V8.62069H3.44827V7.75862Z" fill="white"/>
<path d="M0.862068 7.75862H0V8.62069H0.862068V7.75862Z" fill="white"/>
<path d="M25 8.62069H24.1379V9.48276H25V8.62069Z" fill="white"/>
<path d="M23.2759 8.62069H22.4138V9.48276H23.2759V8.62069Z" fill="white"/>
<path d="M22.4138 8.62069H21.5517V9.48276H22.4138V8.62069Z" fill="white"/>
<path d="M19.8276 8.62069H18.9655V9.48276H19.8276V8.62069Z" fill="white"/>
<path d="M18.1034 8.62069H17.2414V9.48276H18.1034V8.62069Z" fill="white"/>
<path d="M17.2414 8.62069H16.3793V9.48276H17.2414V8.62069Z" fill="white"/>
<path d="M15.5172 8.62069H14.6552V9.48276H15.5172V8.62069Z" fill="white"/>
<path d="M12.931 8.62069H12.069V9.48276H12.931V8.62069Z" fill="white"/>
<path d="M11.2069 8.62069H10.3448V9.48276H11.2069V8.62069Z" fill="white"/>
<path d="M9.48276 8.62069H8.62069V9.48276H9.48276V8.62069Z" fill="white"/>
<path d="M8.62069 8.62069H7.75862V9.48276H8.62069V8.62069Z" fill="white"/>
<path d="M7.75862 8.62069H6.89655V9.48276H7.75862V8.62069Z" fill="white"/>
<path d="M6.03448 8.62069H5.17241V9.48276H6.03448V8.62069Z" fill="white"/>
<path d="M5.17241 8.62069H4.31034V9.48276H5.17241V8.62069Z" fill="white"/>
<path d="M4.31034 8.62069H3.44827V9.48276H4.31034V8.62069Z" fill="white"/>
<path d="M3.44827 8.62069H2.58621V9.48276H3.44827V8.62069Z" fill="white"/>
<path d="M2.58621 8.62069H1.72414V9.48276H2.58621V8.62069Z" fill="white"/>
<path d="M1.72414 8.62069H0.862068V9.48276H1.72414V8.62069Z" fill="white"/>
<path d="M25 9.48276H24.1379V10.3448H25V9.48276Z" fill="white"/>
<path d="M24.1379 9.48276H23.2759V10.3448H24.1379V9.48276Z" fill="white"/>
<path d="M22.4138 9.48276H21.5517V10.3448H22.4138V9.48276Z" fill="white"/>
<path d="M21.5517 9.48276H20.6897V10.3448H21.5517V9.48276Z" fill="white"/>
<path d="M20.6897 9.48276H19.8276V10.3448H20.6897V9.48276Z" fill="white"/>
<path d="M17.2414 9.48276H16.3793V10.3448H17.2414V9.48276Z" fill="white"/>
<path d="M15.5172 9.48276H14.6552V10.3448H15.5172V9.48276Z" fill="white"/>
<path d="M14.6552 9.48276H13.7931V10.3448H14.6552V9.48276Z" fill="white"/>
<path d="M12.069 9.48276H11.2069V10.3448H12.069V9.48276Z" fill="white"/>
<path d="M10.3448 9.48276H9.48276V10.3448H10.3448V9.48276Z" fill="white"/>
<path d="M7.75862 9.48276H6.89655V10.3448H7.75862V9.48276Z" fill="white"/>
<path d="M5.17241 9.48276H4.31034V10.3448H5.17241V9.48276Z" fill="white"/>
<path d="M4.31034 9.48276H3.44827V10.3448H4.31034V9.48276Z" fill="white"/>
<path d="M3.44827 9.48276H2.58621V10.3448H3.44827V9.48276Z" fill="white"/>
<path d="M0.862068 9.48276H0V10.3448H0.862068V9.48276Z" fill="white"/>
<path d="M23.2759 10.3448H22.4138V11.2069H23.2759V10.3448Z" fill="white"/>
<path d="M21.5517 10.3448H20.6897V11.2069H21.5517V10.3448Z" fill="white"/>
<path d="M19.8276 10.3448H18.9655V11.2069H19.8276V10.3448Z" fill="white"/>
<path d="M18.9655 10.3448H18.1034V11.2069H18.9655V10.3448Z" fill="white"/>
<path d="M18.1034 10.3448H17.2414V11.2069H18.1034V10.3448Z" fill="white"/>
<path d="M14.6552 10.3448H13.7931V11.2069H14.6552V10.3448Z" fill="white"/>
<path d="M13.7931 10.3448H12.931V11.2069H13.7931V10.3448Z" fill="white"/>
<path d="M11.2069 10.3448H10.3448V11.2069H11.2069V10.3448Z" fill="white"/>
<path d="M8.62069 10.3448H7.75862V11.2069H8.62069V10.3448Z" fill="white"/>
<path d="M6.89655 10.3448H6.03448V11.2069H6.89655V10.3448Z" fill="white"/>
<path d="M5.17241 10.3448H4.31034V11.2069H5.17241V10.3448Z" fill="white"/>
<path d="M2.58621 10.3448H1.72414V11.2069H2.58621V10.3448Z" fill="white"/>
<path d="M1.72414 10.3448H0.862068V11.2069H1.72414V10.3448Z" fill="white"/>
<path d="M0.862068 10.3448H0V11.2069H0.862068V10.3448Z" fill="white"/>
<path d="M25 11.2069H24.1379V12.069H25V11.2069Z" fill="white"/>
<path d="M24.1379 11.2069H23.2759V12.069H24.1379V11.2069Z" fill="white"/>
<path d="M23.2759 11.2069H22.4138V12.069H23.2759V11.2069Z" fill="white"/>
<path d="M21.5517 11.2069H20.6897V12.069H21.5517V11.2069Z" fill="white"/>
<path d="M20.6897 11.2069H19.8276V12.069H20.6897V11.2069Z" fill="white"/>
<path d="M18.1034 11.2069H17.2414V12.069H18.1034V11.2069Z" fill="white"/>
<path d="M16.3793 11.2069H15.5172V12.069H16.3793V11.2069Z" fill="white"/>
<path d="M14.6552 11.2069H13.7931V12.069H14.6552V11.2069Z" fill="white"/>
<path d="M12.931 11.2069H12.069V12.069H12.931V11.2069Z" fill="white"/>
<path d="M10.3448 11.2069H9.48276V12.069H10.3448V11.2069Z" fill="white"/>
<path d="M8.62069 11.2069H7.75862V12.069H8.62069V11.2069Z" fill="white"/>
<path d="M6.03448 11.2069H5.17241V12.069H6.03448V11.2069Z" fill="white"/>
<path d="M5.17241 11.2069H4.31034V12.069H5.17241V11.2069Z" fill="white"/>
<path d="M3.44827 11.2069H2.58621V12.069H3.44827V11.2069Z" fill="white"/>
<path d="M2.58621 11.2069H1.72414V12.069H2.58621V11.2069Z" fill="white"/>
<path d="M0.862068 11.2069H0V12.069H0.862068V11.2069Z" fill="white"/>
<path d="M25 12.069H24.1379V12.931H25V12.069Z" fill="white"/>
<path d="M23.2759 12.069H22.4138V12.931H23.2759V12.069Z" fill="white"/>
<path d="M22.4138 12.069H21.5517V12.931H22.4138V12.069Z" fill="white"/>
<path d="M21.5517 12.069H20.6897V12.931H21.5517V12.069Z" fill="white"/>
<path d="M19.8276 12.069H18.9655V12.931H19.8276V12.069Z" fill="white"/>
<path d="M18.9655 12.069H18.1034V12.931H18.9655V12.069Z" fill="white"/>
<path d="M15.5172 12.069H14.6552V12.931H15.5172V12.069Z" fill="white"/>
<path d="M12.931 12.069H12.069V12.931H12.931V12.069Z" fill="white"/>
<path d="M11.2069 12.069H10.3448V12.931H11.2069V12.069Z" fill="white"/>
<path d="M8.62069 12.069H7.75862V12.931H8.62069V12.069Z" fill="white"/>
<path d="M6.89655 12.069H6.03448V12.931H6.89655V12.069Z" fill="white"/>
<path d="M6.03448 12.069H5.17241V12.931H6.03448V12.069Z" fill="white"/>
<path d="M5.17241 12.069H4.31034V12.931H5.17241V12.069Z" fill="white"/>
<path d="M4.31034 12.069H3.44827V12.931H4.31034V12.069Z" fill="white"/>
<path d="M3.44827 12.069H2.58621V12.931H3.44827V12.069Z" fill="white"/>
<path d="M1.72414 12.069H0.862068V12.931H1.72414V12.069Z" fill="white"/>
<path d="M0.862068 12.069H0V12.931H0.862068V12.069Z" fill="white"/>
<path d="M25 12.931H24.1379V13.7931H25V12.931Z" fill="white"/>
<path d="M21.5517 12.931H20.6897V13.7931H21.5517V12.931Z" fill="white"/>
<path d="M18.9655 12.931H18.1034V13.7931H18.9655V12.931Z" fill="white"/>
<path d="M17.2414 12.931H16.3793V13.7931H17.2414V12.931Z" fill="white"/>
<path d="M16.3793 12.931H15.5172V13.7931H16.3793V12.931Z" fill="white"/>
<path d="M15.5172 12.931H14.6552V13.7931H15.5172V12.931Z" fill="white"/>
<path d="M14.6552 12.931H13.7931V13.7931H14.6552V12.931Z" fill="white"/>
<path d="M13.7931 12.931H12.931V13.7931H13.7931V12.931Z" fill="white"/>
<path d="M12.931 12.931H12.069V13.7931H12.931V12.931Z" fill="white"/>
<path d="M10.3448 12.931H9.48276V13.7931H10.3448V12.931Z" fill="white"/>
<path d="M9.48276 12.931H8.62069V13.7931H9.48276V12.931Z" fill="white"/>
<path d="M8.62069 12.931H7.75862V13.7931H8.62069V12.931Z" fill="white"/>
<path d="M7.75862 12.931H6.89655V13.7931H7.75862V12.931Z" fill="white"/>
<path d="M4.31034 12.931H3.44827V13.7931H4.31034V12.931Z" fill="white"/>
<path d="M3.44827 12.931H2.58621V13.7931H3.44827V12.931Z" fill="white"/>
<path d="M22.4138 13.7931H21.5517V14.6552H22.4138V13.7931Z" fill="white"/>
<path d="M21.5517 13.7931H20.6897V14.6552H21.5517V13.7931Z" fill="white"/>
<path d="M19.8276 13.7931H18.9655V14.6552H19.8276V13.7931Z" fill="white"/>
<path d="M18.9655 13.7931H18.1034V14.6552H18.9655V13.7931Z" fill="white"/>
<path d="M14.6552 13.7931H13.7931V14.6552H14.6552V13.7931Z" fill="white"/>
<path d="M13.7931 13.7931H12.931V14.6552H13.7931V13.7931Z" fill="white"/>
<path d="M12.069 13.7931H11.2069V14.6552H12.069V13.7931Z" fill="white"/>
<path d="M7.75862 13.7931H6.89655V14.6552H7.75862V13.7931Z" fill="white"/>
<path d="M6.89655 13.7931H6.03448V14.6552H6.89655V13.7931Z" fill="white"/>
<path d="M5.17241 13.7931H4.31034V14.6552H5.17241V13.7931Z" fill="white"/>
<path d="M4.31034 13.7931H3.44827V14.6552H4.31034V13.7931Z" fill="white"/>
<path d="M3.44827 13.7931H2.58621V14.6552H3.44827V13.7931Z" fill="white"/>
<path d="M23.2759 14.6552H22.4138V15.5172H23.2759V14.6552Z" fill="white"/>
<path d="M22.4138 14.6552H21.5517V15.5172H22.4138V14.6552Z" fill="white"/>
<path d="M18.9655 14.6552H18.1034V15.5172H18.9655V14.6552Z" fill="white"/>
<path d="M18.1034 14.6552H17.2414V15.5172H18.1034V14.6552Z" fill="white"/>
<path d="M15.5172 14.6552H14.6552V15.5172H15.5172V14.6552Z" fill="white"/>
<path d="M14.6552 14.6552H13.7931V15.5172H14.6552V14.6552Z" fill="white"/>
<path d="M13.7931 14.6552H12.931V15.5172H13.7931V14.6552Z" fill="white"/>
<path d="M12.931 14.6552H12.069V15.5172H12.931V14.6552Z" fill="white"/>
<path d="M12.069 14.6552H11.2069V15.5172H12.069V14.6552Z" fill="white"/>
<path d="M10.3448 14.6552H9.48276V15.5172H10.3448V14.6552Z" fill="white"/>
<path d="M9.48276 14.6552H8.62069V15.5172H9.48276V14.6552Z" fill="white"/>
<path d="M8.62069 14.6552H7.75862V15.5172H8.62069V14.6552Z" fill="white"/>
<path d="M6.89655 14.6552H6.03448V15.5172H6.89655V14.6552Z" fill="white"/>
<path d="M5.17241 14.6552H4.31034V15.5172H5.17241V14.6552Z" fill="white"/>
<path d="M2.58621 14.6552H1.72414V15.5172H2.58621V14.6552Z" fill="white"/>
<path d="M25 15.5172H24.1379V16.3793H25V15.5172Z" fill="white"/>
<path d="M23.2759 15.5172H22.4138V16.3793H23.2759V15.5172Z" fill="white"/>
<path d="M21.5517 15.5172H20.6897V16.3793H21.5517V15.5172Z" fill="white"/>
<path d="M19.8276 15.5172H18.9655V16.3793H19.8276V15.5172Z" fill="white"/>
<path d="M18.1034 15.5172H17.2414V16.3793H18.1034V15.5172Z" fill="white"/>
<path d="M15.5172 15.5172H14.6552V16.3793H15.5172V15.5172Z" fill="white"/>
<path d="M14.6552 15.5172H13.7931V16.3793H14.6552V15.5172Z" fill="white"/>
<path d="M13.7931 15.5172H12.931V16.3793H13.7931V15.5172Z" fill="white"/>
<path d="M12.069 15.5172H11.2069V16.3793H12.069V15.5172Z" fill="white"/>
<path d="M10.3448 15.5172H9.48276V16.3793H10.3448V15.5172Z" fill="white"/>
<path d="M9.48276 15.5172H8.62069V16.3793H9.48276V15.5172Z" fill="white"/>
<path d="M7.75862 15.5172H6.89655V16.3793H7.75862V15.5172Z" fill="white"/>
<path d="M6.03448 15.5172H5.17241V16.3793H6.03448V15.5172Z" fill="white"/>
<path d="M5.17241 15.5172H4.31034V16.3793H5.17241V15.5172Z" fill="white"/>
<path d="M2.58621 15.5172H1.72414V16.3793H2.58621V15.5172Z" fill="white"/>
<path d="M20.6897 16.3793H19.8276V17.2414H20.6897V16.3793Z" fill="white"/>
<path d="M18.1034 16.3793H17.2414V17.2414H18.1034V16.3793Z" fill="white"/>
<path d="M17.2414 16.3793H16.3793V17.2414H17.2414V16.3793Z" fill="white"/>
<path d="M16.3793 16.3793H15.5172V17.2414H16.3793V16.3793Z" fill="white"/>
<path d="M12.931 16.3793H12.069V17.2414H12.931V16.3793Z" fill="white"/>
<path d="M10.3448 16.3793H9.48276V17.2414H10.3448V16.3793Z" fill="white"/>
<path d="M9.48276 16.3793H8.62069V17.2414H9.48276V16.3793Z" fill="white"/>
<path d="M8.62069 16.3793H7.75862V17.2414H8.62069V16.3793Z" fill="white"/>
<path d="M6.89655 16.3793H6.03448V17.2414H6.89655V16.3793Z" fill="white"/>
<path d="M6.03448 16.3793H5.17241V17.2414H6.03448V16.3793Z" fill="white"/>
<path d="M4.31034 16.3793H3.44827V17.2414H4.31034V16.3793Z" fill="white"/>
<path d="M3.44827 16.3793H2.58621V17.2414H3.44827V16.3793Z" fill="white"/>
<path d="M2.58621 16.3793H1.72414V17.2414H2.58621V16.3793Z" fill="white"/>
<path d="M1.72414 16.3793H0.862068V17.2414H1.72414V16.3793Z" fill="white"/>
<path d="M24.1379 17.2414H23.2759V18.1034H24.1379V17.2414Z" fill="white"/>
<path d="M19.8276 17.2414H18.9655V18.1034H19.8276V17.2414Z" fill="white"/>
<path d="M17.2414 17.2414H16.3793V18.1034H17.2414V17.2414Z" fill="white"/>
<path d="M16.3793 17.2414H15.5172V18.1034H16.3793V17.2414Z" fill="white"/>
<path d="M15.5172 17.2414H14.6552V18.1034H15.5172V17.2414Z" fill="white"/>
<path d="M14.6552 17.2414H13.7931V18.1034H14.6552V17.2414Z" fill="white"/>
<path d="M13.7931 17.2414H12.931V18.1034H13.7931V17.2414Z" fill="white"/>
<path d="M12.931 17.2414H12.069V18.1034H12.931V17.2414Z" fill="white"/>
<path d="M11.2069 17.2414H10.3448V18.1034H11.2069V17.2414Z" fill="white"/>
<path d="M10.3448 17.2414H9.48276V18.1034H10.3448V17.2414Z" fill="white"/>
<path d="M7.75862 17.2414H6.89655V18.1034H7.75862V17.2414Z" fill="white"/>
<path d="M6.89655 17.2414H6.03448V18.1034H6.89655V17.2414Z" fill="white"/>
<path d="M6.03448 17.2414H5.17241V18.1034H6.03448V17.2414Z" fill="white"/>
<path d="M5.17241 17.2414H4.31034V18.1034H5.17241V17.2414Z" fill="white"/>
<path d="M4.31034 17.2414H3.44827V18.1034H4.31034V17.2414Z" fill="white"/>
<path d="M3.44827 17.2414H2.58621V18.1034H3.44827V17.2414Z" fill="white"/>
<path d="M2.58621 17.2414H1.72414V18.1034H2.58621V17.2414Z" fill="white"/>
<path d="M1.72414 17.2414H0.862068V18.1034H1.72414V17.2414Z" fill="white"/>
<path d="M0.862068 17.2414H0V18.1034H0.862068V17.2414Z" fill="white"/>
<path d="M18.1034 18.1034H17.2414V18.9655H18.1034V18.1034Z" fill="white"/>
<path d="M17.2414 18.1034H16.3793V18.9655H17.2414V18.1034Z" fill="white"/>
<path d="M15.5172 18.1034H14.6552V18.9655H15.5172V18.1034Z" fill="white"/>
<path d="M14.6552 18.1034H13.7931V18.9655H14.6552V18.1034Z" fill="white"/>
<path d="M13.7931 18.1034H12.931V18.9655H13.7931V18.1034Z" fill="white"/>
<path d="M12.931 18.1034H12.069V18.9655H12.931V18.1034Z" fill="white"/>
<path d="M12.069 18.1034H11.2069V18.9655H12.069V18.1034Z" fill="white"/>
<path d="M11.2069 18.1034H10.3448V18.9655H11.2069V18.1034Z" fill="white"/>
<path d="M8.62069 18.1034H7.75862V18.9655H8.62069V18.1034Z" fill="white"/>
<path d="M7.75862 18.1034H6.89655V18.9655H7.75862V18.1034Z" fill="white"/>
<path d="M4.31034 18.1034H3.44827V18.9655H4.31034V18.1034Z" fill="white"/>
<path d="M3.44827 18.1034H2.58621V18.9655H3.44827V18.1034Z" fill="white"/>
<path d="M1.72414 18.1034H0.862068V18.9655H1.72414V18.1034Z" fill="white"/>
<path d="M0.862068 18.1034H0V18.9655H0.862068V18.1034Z" fill="white"/>
<path d="M25 18.9655H24.1379V19.8276H25V18.9655Z" fill="white"/>
<path d="M24.1379 18.9655H23.2759V19.8276H24.1379V18.9655Z" fill="white"/>
<path d="M23.2759 18.9655H22.4138V19.8276H23.2759V18.9655Z" fill="white"/>
<path d="M22.4138 18.9655H21.5517V19.8276H22.4138V18.9655Z" fill="white"/>
<path d="M21.5517 18.9655H20.6897V19.8276H21.5517V18.9655Z" fill="white"/>
<path d="M20.6897 18.9655H19.8276V19.8276H20.6897V18.9655Z" fill="white"/>
<path d="M19.8276 18.9655H18.9655V19.8276H19.8276V18.9655Z" fill="white"/>
<path d="M18.1034 18.9655H17.2414V19.8276H18.1034V18.9655Z" fill="white"/>
<path d="M17.2414 18.9655H16.3793V19.8276H17.2414V18.9655Z" fill="white"/>
<path d="M16.3793 18.9655H15.5172V19.8276H16.3793V18.9655Z" fill="white"/>
<path d="M15.5172 18.9655H14.6552V19.8276H15.5172V18.9655Z" fill="white"/>
<path d="M14.6552 18.9655H13.7931V19.8276H14.6552V18.9655Z" fill="white"/>
<path d="M13.7931 18.9655H12.931V19.8276H13.7931V18.9655Z" fill="white"/>
<path d="M12.931 18.9655H12.069V19.8276H12.931V18.9655Z" fill="white"/>
<path d="M8.62069 18.9655H7.75862V19.8276H8.62069V18.9655Z" fill="white"/>
<path d="M7.75862 18.9655H6.89655V19.8276H7.75862V18.9655Z" fill="white"/>
<path d="M6.03448 18.9655H5.17241V19.8276H6.03448V18.9655Z" fill="white"/>
<path d="M4.31034 18.9655H3.44827V19.8276H4.31034V18.9655Z" fill="white"/>
<path d="M2.58621 18.9655H1.72414V19.8276H2.58621V18.9655Z" fill="white"/>
<path d="M1.72414 18.9655H0.862068V19.8276H1.72414V18.9655Z" fill="white"/>
<path d="M25 19.8276H24.1379V20.6897H25V19.8276Z" fill="white"/>
<path d="M19.8276 19.8276H18.9655V20.6897H19.8276V19.8276Z" fill="white"/>
<path d="M15.5172 19.8276H14.6552V20.6897H15.5172V19.8276Z" fill="white"/>
<path d="M14.6552 19.8276H13.7931V20.6897H14.6552V19.8276Z" fill="white"/>
<path d="M13.7931 19.8276H12.931V20.6897H13.7931V19.8276Z" fill="white"/>
<path d="M12.069 19.8276H11.2069V20.6897H12.069V19.8276Z" fill="white"/>
<path d="M9.48276 19.8276H8.62069V20.6897H9.48276V19.8276Z" fill="white"/>
<path d="M7.75862 19.8276H6.89655V20.6897H7.75862V19.8276Z" fill="white"/>
<path d="M4.31034 19.8276H3.44827V20.6897H4.31034V19.8276Z" fill="white"/>
<path d="M0.862068 19.8276H0V20.6897H0.862068V19.8276Z" fill="white"/>
<path d="M25 20.6897H24.1379V21.5517H25V20.6897Z" fill="white"/>
<path d="M23.2759 20.6897H22.4138V21.5517H23.2759V20.6897Z" fill="white"/>
<path d="M22.4138 20.6897H21.5517V21.5517H22.4138V20.6897Z" fill="white"/>
<path d="M21.5517 20.6897H20.6897V21.5517H21.5517V20.6897Z" fill="white"/>
<path d="M19.8276 20.6897H18.9655V21.5517H19.8276V20.6897Z" fill="white"/>
<path d="M16.3793 20.6897H15.5172V21.5517H16.3793V20.6897Z" fill="white"/>
<path d="M14.6552 20.6897H13.7931V21.5517H14.6552V20.6897Z" fill="white"/>
<path d="M13.7931 20.6897H12.931V21.5517H13.7931V20.6897Z" fill="white"/>
<path d="M11.2069 20.6897H10.3448V21.5517H11.2069V20.6897Z" fill="white"/>
<path d="M10.3448 20.6897H9.48276V21.5517H10.3448V20.6897Z" fill="white"/>
<path d="M9.48276 20.6897H8.62069V21.5517H9.48276V20.6897Z" fill="white"/>
<path d="M7.75862 20.6897H6.89655V21.5517H7.75862V20.6897Z" fill="white"/>
<path d="M6.89655 20.6897H6.03448V21.5517H6.89655V20.6897Z" fill="white"/>
<path d="M6.03448 20.6897H5.17241V21.5517H6.03448V20.6897Z" fill="white"/>
<path d="M5.17241 20.6897H4.31034V21.5517H5.17241V20.6897Z" fill="white"/>
<path d="M4.31034 20.6897H3.44827V21.5517H4.31034V20.6897Z" fill="white"/>
<path d="M3.44827 20.6897H2.58621V21.5517H3.44827V20.6897Z" fill="white"/>
<path d="M2.58621 20.6897H1.72414V21.5517H2.58621V20.6897Z" fill="white"/>
<path d="M25 21.5517H24.1379V22.4138H25V21.5517Z" fill="white"/>
<path d="M23.2759 21.5517H22.4138V22.4138H23.2759V21.5517Z" fill="white"/>
<path d="M22.4138 21.5517H21.5517V22.4138H22.4138V21.5517Z" fill="white"/>
<path d="M21.5517 21.5517H20.6897V22.4138H21.5517V21.5517Z" fill="white"/>
<path d="M19.8276 21.5517H18.9655V22.4138H19.8276V21.5517Z" fill="white"/>
<path d="M18.1034 21.5517H17.2414V22.4138H18.1034V21.5517Z" fill="white"/>
<path d="M15.5172 21.5517H14.6552V22.4138H15.5172V21.5517Z" fill="white"/>
<path d="M14.6552 21.5517H13.7931V22.4138H14.6552V21.5517Z" fill="white"/>
<path d="M12.931 21.5517H12.069V22.4138H12.931V21.5517Z" fill="white"/>
<path d="M12.069 21.5517H11.2069V22.4138H12.069V21.5517Z" fill="white"/>
<path d="M11.2069 21.5517H10.3448V22.4138H11.2069V21.5517Z" fill="white"/>
<path d="M10.3448 21.5517H9.48276V22.4138H10.3448V21.5517Z" fill="white"/>
<path d="M8.62069 21.5517H7.75862V22.4138H8.62069V21.5517Z" fill="white"/>
<path d="M4.31034 21.5517H3.44827V22.4138H4.31034V21.5517Z" fill="white"/>
<path d="M3.44827 21.5517H2.58621V22.4138H3.44827V21.5517Z" fill="white"/>
<path d="M1.72414 21.5517H0.862068V22.4138H1.72414V21.5517Z" fill="white"/>
<path d="M25 22.4138H24.1379V23.2759H25V22.4138Z" fill="white"/>
<path d="M23.2759 22.4138H22.4138V23.2759H23.2759V22.4138Z" fill="white"/>
<path d="M22.4138 22.4138H21.5517V23.2759H22.4138V22.4138Z" fill="white"/>
<path d="M21.5517 22.4138H20.6897V23.2759H21.5517V22.4138Z" fill="white"/>
<path d="M19.8276 22.4138H18.9655V23.2759H19.8276V22.4138Z" fill="white"/>
<path d="M18.1034 22.4138H17.2414V23.2759H18.1034V22.4138Z" fill="white"/>
<path d="M15.5172 22.4138H14.6552V23.2759H15.5172V22.4138Z" fill="white"/>
<path d="M12.931 22.4138H12.069V23.2759H12.931V22.4138Z" fill="white"/>
<path d="M11.2069 22.4138H10.3448V23.2759H11.2069V22.4138Z" fill="white"/>
<path d="M10.3448 22.4138H9.48276V23.2759H10.3448V22.4138Z" fill="white"/>
<path d="M9.48276 22.4138H8.62069V23.2759H9.48276V22.4138Z" fill="white"/>
<path d="M7.75862 22.4138H6.89655V23.2759H7.75862V22.4138Z" fill="white"/>
<path d="M5.17241 22.4138H4.31034V23.2759H5.17241V22.4138Z" fill="white"/>
<path d="M0.862068 22.4138H0V23.2759H0.862068V22.4138Z" fill="white"/>
<path d="M25 23.2759H24.1379V24.1379H25V23.2759Z" fill="white"/>
<path d="M19.8276 23.2759H18.9655V24.1379H19.8276V23.2759Z" fill="white"/>
<path d="M17.2414 23.2759H16.3793V24.1379H17.2414V23.2759Z" fill="white"/>
<path d="M16.3793 23.2759H15.5172V24.1379H16.3793V23.2759Z" fill="white"/>
<path d="M12.931 23.2759H12.069V24.1379H12.931V23.2759Z" fill="white"/>
<path d="M12.069 23.2759H11.2069V24.1379H12.069V23.2759Z" fill="white"/>
<path d="M11.2069 23.2759H10.3448V24.1379H11.2069V23.2759Z" fill="white"/>
<path d="M10.3448 23.2759H9.48276V24.1379H10.3448V23.2759Z" fill="white"/>
<path d="M7.75862 23.2759H6.89655V24.1379H7.75862V23.2759Z" fill="white"/>
<path d="M6.89655 23.2759H6.03448V24.1379H6.89655V23.2759Z" fill="white"/>
<path d="M6.03448 23.2759H5.17241V24.1379H6.03448V23.2759Z" fill="white"/>
<path d="M4.31034 23.2759H3.44827V24.1379H4.31034V23.2759Z" fill="white"/>
<path d="M3.44827 23.2759H2.58621V24.1379H3.44827V23.2759Z" fill="white"/>
<path d="M1.72414 23.2759H0.862068V24.1379H1.72414V23.2759Z" fill="white"/>
<path d="M25 24.1379H24.1379V25H25V24.1379Z" fill="white"/>
<path d="M24.1379 24.1379H23.2759V25H24.1379V24.1379Z" fill="white"/>
<path d="M23.2759 24.1379H22.4138V25H23.2759V24.1379Z" fill="white"/>
<path d="M22.4138 24.1379H21.5517V25H22.4138V24.1379Z" fill="white"/>
<path d="M21.5517 24.1379H20.6897V25H21.5517V24.1379Z" fill="white"/>
<path d="M20.6897 24.1379H19.8276V25H20.6897V24.1379Z" fill="white"/>
<path d="M19.8276 24.1379H18.9655V25H19.8276V24.1379Z" fill="white"/>
<path d="M17.2414 24.1379H16.3793V25H17.2414V24.1379Z" fill="white"/>
<path d="M14.6552 24.1379H13.7931V25H14.6552V24.1379Z" fill="white"/>
<path d="M13.7931 24.1379H12.931V25H13.7931V24.1379Z" fill="white"/>
<path d="M12.069 24.1379H11.2069V25H12.069V24.1379Z" fill="white"/>
<path d="M11.2069 24.1379H10.3448V25H11.2069V24.1379Z" fill="white"/>
<path d="M10.3448 24.1379H9.48276V25H10.3448V24.1379Z" fill="white"/>
<path d="M7.75862 24.1379H6.89655V25H7.75862V24.1379Z" fill="white"/>
<path d="M6.89655 24.1379H6.03448V25H6.89655V24.1379Z" fill="white"/>
<path d="M5.17241 24.1379H4.31034V25H5.17241V24.1379Z" fill="white"/>
<path d="M1.72414 24.1379H0.862068V25H1.72414V24.1379Z" fill="white"/>
</svg>
