<svg width="33" height="33" viewBox="0 0 33 33" fill="none" xmlns="http://www.w3.org/2000/svg">
<path d="M13.9476 9.11292C15.0292 6.41655 15.57 5.06836 16.4999 5.06836C17.4299 5.06836 17.9707 6.41655 19.0523 9.11292L19.1026 9.23848C19.7137 10.7618 20.0192 11.5235 20.6419 11.9864C21.2645 12.4493 22.0819 12.5226 23.7167 12.669L24.0122 12.6954C26.6877 12.935 28.0254 13.0548 28.3117 13.9059C28.5979 14.757 27.6045 15.6609 25.6175 17.4686L24.9544 18.0719C23.9486 18.987 23.4457 19.4445 23.2113 20.0442C23.1675 20.1561 23.1312 20.2707 23.1024 20.3873C22.9484 21.0125 23.0956 21.6762 23.3902 23.0037L23.4819 23.4169C24.0232 25.8567 24.2938 27.0765 23.8213 27.6027C23.6447 27.7993 23.4152 27.9409 23.1602 28.0104C22.4779 28.1966 21.5093 27.4073 19.572 25.8286C18.2999 24.7921 17.6638 24.2738 16.9335 24.1572C16.6463 24.1113 16.3536 24.1113 16.0663 24.1572C15.3361 24.2738 14.7 24.7921 13.4279 25.8286C11.4906 27.4073 10.5219 28.1966 9.83967 28.0104C9.58472 27.9409 9.35522 27.7993 9.17864 27.6027C8.70608 27.0765 8.97673 25.8567 9.51803 23.4169L9.60971 23.0037C9.90425 21.6762 10.0515 21.0125 9.89744 20.3873C9.8687 20.2707 9.83235 20.1561 9.78863 20.0442C9.55422 19.4445 9.05131 18.987 8.04549 18.0719L7.38236 17.4686C5.39542 15.6609 4.40195 14.757 4.6882 13.9059C4.97444 13.0548 6.31219 12.935 8.98768 12.6954L9.28322 12.669C10.918 12.5226 11.7354 12.4493 12.358 11.9864C12.9807 11.5235 13.2862 10.7618 13.8973 9.23848L13.9476 9.11292Z" stroke="url(#paint0_linear_143_3444)" stroke-width="2"/>
<defs>
<linearGradient id="paint0_linear_143_3444" x1="22.5" y1="1.5" x2="6" y2="33" gradientUnits="userSpaceOnUse">
<stop stop-color="#A43936"/>
<stop offset="0.510417" stop-color="#444584"/>
<stop offset="1" stop-color="#223F80"/>
</linearGradient>
</defs>
</svg>
