<svg width="40" height="40" viewBox="0 0 40 40" fill="none" xmlns="http://www.w3.org/2000/svg">
<path fill-rule="evenodd" clip-rule="evenodd" d="M3.33337 20C3.33337 10.7952 10.7953 3.33333 20 3.33333C29.2048 3.33333 36.6667 10.7952 36.6667 20C36.6667 25.2783 34.213 29.9835 30.3841 33.0373C29.6794 31.021 28.4003 29.2472 26.6964 27.9398C24.7753 26.4657 22.4215 25.6667 20 25.6667C17.5786 25.6667 15.2248 26.4657 13.3037 27.9398C11.5998 29.2472 10.3207 31.021 9.61602 33.0373C5.78706 29.9835 3.33337 25.2783 3.33337 20ZM25.4789 29.5265C27.0237 30.7119 28.1417 32.3658 28.6665 34.2391C26.1413 35.7793 23.1743 36.6667 20 36.6667C16.8258 36.6667 13.8588 35.7793 11.3336 34.2391C11.8584 32.3658 12.9763 30.7119 14.5212 29.5265C16.093 28.3204 18.0188 27.6667 20 27.6667C21.9813 27.6667 23.9071 28.3204 25.4789 29.5265ZM16 15C16 12.7909 17.7909 11 20 11C22.2092 11 24 12.7909 24 15C24 17.2091 22.2092 19 20 19C17.7909 19 16 17.2091 16 15ZM20 8.99999C16.6863 8.99999 14 11.6863 14 15C14 18.3137 16.6863 21 20 21C23.3137 21 26 18.3137 26 15C26 11.6863 23.3137 8.99999 20 8.99999Z" fill="url(#paint0_linear_53_2614)"/>
<defs>
<linearGradient id="paint0_linear_53_2614" x1="8.09528" y1="42.3809" x2="34.2858" y2="5.23809" gradientUnits="userSpaceOnUse">
<stop stop-color="#223F80"/>
<stop offset="0.442708" stop-color="#444584"/>
<stop offset="1" stop-color="#A43936"/>
</linearGradient>
</defs>
</svg>
